<?xml version="1.0" encoding="UTF-8" standalone="no"?>
<svg
   xmlns:dc="http://purl.org/dc/elements/1.1/"
   xmlns:cc="http://creativecommons.org/ns#"
   xmlns:rdf="http://www.w3.org/1999/02/22-rdf-syntax-ns#"
   xmlns:svg="http://www.w3.org/2000/svg"
   xmlns="http://www.w3.org/2000/svg"
   xmlns:sodipodi="http://sodipodi.sourceforge.net/DTD/sodipodi-0.dtd"
   xmlns:inkscape="http://www.inkscape.org/namespaces/inkscape"
   version="1.1"
   id="svg2"
   xml:space="preserve"
   width="49.333332"
   height="53.333332"
   viewBox="0 0 49.333332 53.333332"
   sodipodi:docname="apl.shield.large.white.eps"><metadata
     id="metadata8"><rdf:RDF><cc:Work
         rdf:about=""><dc:format>image/svg+xml</dc:format><dc:type
           rdf:resource="http://purl.org/dc/dcmitype/StillImage" /></cc:Work></rdf:RDF></metadata><defs
     id="defs6" /><sodipodi:namedview
     pagecolor="#ffffff"
     bordercolor="#666666"
     borderopacity="1"
     objecttolerance="10"
     gridtolerance="10"
     guidetolerance="10"
     inkscape:pageopacity="0"
     inkscape:pageshadow="2"
     inkscape:window-width="640"
     inkscape:window-height="480"
     id="namedview4" /><g
     id="g10"
     inkscape:groupmode="layer"
     inkscape:label="ink_ext_XXXXXX"
     transform="matrix(1.3333333,0,0,-1.3333333,0,53.333333)"><g
       id="g12"
       transform="scale(0.1)"><path
         d="m 179.098,223.984 v 68.95 c 18.976,-0.082 34.347,-15.469 34.347,-34.481 0,-19 -15.371,-34.41 -34.347,-34.469 m 0,85.528 v 0 H 162.484 V 169.473 h 16.614 v 37.929 c 28.136,0.063 50.953,22.891 50.953,51.051 0,28.172 -22.817,51 -50.953,51.059"
         style="fill:#ffffff;fill-opacity:1;fill-rule:nonzero;stroke:none"
         id="path14" /><path
         d="M 132.695,279.336 V 224.535 H 91.207 c 9.148,21.539 23.512,40.352 41.488,54.801 M 63.6211,169.453 h 16.4023 c 0,13.145 1.8047,25.86 5.1602,37.934 h 47.5114 v -37.914 h 16.614 V 309.566 C 98.4336,283.496 63.6211,230.547 63.6211,169.453"
         style="fill:#ffffff;fill-opacity:1;fill-rule:nonzero;stroke:none"
         id="path16" /><path
         d="M 354.988,329.883 C 354.988,134.27 239.023,46.2305 189.23,19.8438 c -2.699,-1.4844 -5.285,-1.6797 -8.507,0.039 C 130.891,46.2891 15.0117,134.336 15.0117,329.883 L 15,359.395 c 0,4.007 2.75,7.367 6.4688,8.277 l 0.2226,0.062 c 52.6602,11.27 107.2886,17.25 163.3086,17.25 55.945,0 110.496,-5.961 163.098,-17.191 l 0.117,-0.059 c 3.875,-0.8 6.785,-4.222 6.785,-8.339 z m -5.039,42.578 -0.054,0.043 -0.735,0.191 C 295.41,384.164 240.176,389.984 185,389.984 129.77,389.984 74.4805,384.141 20.6484,372.633 14.2188,371.012 10,365.602 10,359.395 l 0.0195,-29.512 c 0,-208.926 128.8715,-293.4963 168.3715,-314.4338 2.285,-1.2109 4.468,-1.7969 6.675,-1.7969 2.239,0 4.399,0.6172 6.606,1.836 C 231.086,36.3477 360,120.84 360,329.883 v 29.512 c 0,6.128 -4.18,11.527 -10.051,13.066"
         style="fill:#ffffff;fill-opacity:1;fill-rule:nonzero;stroke:none"
         id="path18" /><path
         d="M 255.344,309.492 H 238.723 V 169.473 h 70.293 v 15.996 h -53.672 v 124.023"
         style="fill:#ffffff;fill-opacity:1;fill-rule:nonzero;stroke:none"
         id="path20" /></g></g></svg>
