<?xml version="1.0" encoding="UTF-8" standalone="no"?>
<svg
   xmlns:dc="http://purl.org/dc/elements/1.1/"
   xmlns:cc="http://creativecommons.org/ns#"
   xmlns:rdf="http://www.w3.org/1999/02/22-rdf-syntax-ns#"
   xmlns:svg="http://www.w3.org/2000/svg"
   xmlns="http://www.w3.org/2000/svg"
   viewBox="0 0 398.66666 153.33333"
   height="153.33333"
   width="398.66666"
   xml:space="preserve"
   id="svg2"
   version="1.1"><metadata
     id="metadata8"><rdf:RDF><cc:Work
         rdf:about=""><dc:format>image/svg+xml</dc:format><dc:type
           rdf:resource="http://purl.org/dc/dcmitype/StillImage" /></cc:Work></rdf:RDF></metadata><defs
     id="defs6"><clipPath
       id="clipPath20"
       clipPathUnits="userSpaceOnUse"><path
         id="path18"
         d="M 380,392.898 H 730 V 770 H 380 Z" /></clipPath><clipPath
       id="clipPath36"
       clipPathUnits="userSpaceOnUse"><path
         id="path34"
         d="M 810,509.121 H 2610 V 754.922 H 810 Z" /></clipPath></defs><g
     transform="matrix(1.3333333,0,0,-1.3333333,0,153.33333)"
     id="g10"><g
       transform="scale(0.1)"
       id="g12"><g
         id="g14"><g
           clip-path="url(#clipPath20)"
           id="g16"><path
             id="path22"
             style="fill:#ffffff;fill-opacity:1;fill-rule:nonzero;stroke:none"
             d="m 549.098,603.984 v 68.95 c 18.976,-0.082 34.347,-15.469 34.347,-34.481 0,-19 -15.371,-34.41 -34.347,-34.469 m 0,85.528 v 0 H 532.484 V 549.473 h 16.614 v 37.929 c 28.136,0.063 50.953,22.891 50.953,51.051 0,28.172 -22.817,51 -50.953,51.059" /><path
             id="path24"
             style="fill:#ffffff;fill-opacity:1;fill-rule:nonzero;stroke:none"
             d="m 502.695,659.336 v -54.801 h -41.488 c 9.148,21.539 23.512,40.352 41.488,54.801 M 433.621,549.453 h 16.402 c 0,13.145 1.801,25.863 5.165,37.934 h 47.507 v -37.914 h 16.614 v 140.093 c -50.875,-26.07 -85.688,-79.019 -85.688,-140.113" /><path
             id="path26"
             style="fill:#ffffff;fill-opacity:1;fill-rule:nonzero;stroke:none"
             d="m 724.988,709.883 c 0,-195.625 -115.968,-283.653 -165.758,-310.039 -2.703,-1.485 -5.281,-1.68 -8.511,0.039 -49.828,26.406 -165.707,114.453 -165.707,310 L 385,739.391 c 0,4.011 2.75,7.371 6.469,8.281 l 0.219,0.062 c 52.664,11.27 107.292,17.246 163.312,17.246 55.953,0 110.496,-5.957 163.102,-17.187 l 0.105,-0.059 c 3.883,-0.8 6.793,-4.222 6.793,-8.343 z m -5.039,42.578 -0.062,0.039 -0.727,0.191 C 665.41,764.16 610.18,769.98 555,769.98 499.77,769.98 444.48,764.141 390.648,752.633 384.219,751.012 380,745.602 380,739.391 l 0.02,-29.508 c 0,-208.938 128.871,-293.496 168.371,-314.434 2.277,-1.211 4.468,-1.797 6.675,-1.797 2.235,0 4.391,0.606 6.606,1.836 C 601.078,416.34 730,500.84 730,709.883 v 29.508 c 0,6.132 -4.18,11.531 -10.051,13.07" /><path
             id="path28"
             style="fill:#ffffff;fill-opacity:1;fill-rule:nonzero;stroke:none"
             d="M 625.344,689.492 H 608.723 V 549.473 h 70.293 v 15.996 h -53.672 v 124.023" /></g></g><g
         id="g30"><g
           clip-path="url(#clipPath36)"
           id="g32"><path
             id="path38"
             style="fill:#ffffff;fill-opacity:1;fill-rule:nonzero;stroke:none"
             d="m 861.484,710.82 c 0,31.582 -2.851,35 -19.629,36.43 l -7.109,0.559 c -1.723,1.14 -1.133,6.25 0.567,7.113 16.511,-0.563 26.171,-0.863 38.109,-0.863 11.383,0 21.058,0.3 32.433,0.863 1.719,-0.863 2.29,-5.973 0.571,-7.113 l -4.254,-0.559 c -16.777,-2.289 -17.367,-6.27 -17.367,-36.43 V 605.27 c 0,-22.461 -1.133,-42.086 -6.535,-55.172 -9.399,-22.774 -29.586,-40.977 -56.036,-40.977 -3.421,0 -12.23,0.281 -12.23,5.977 0,4.836 4.25,13.086 10.223,13.086 3.418,0 6.839,-0.567 10.535,-1.7 3.984,-1.152 7.972,-1.992 11.941,-1.992 5.981,0 9.402,3.399 11.379,7.371 6.543,13.391 7.402,56.067 7.402,71.418 V 710.82" /><path
             id="path40"
             style="fill:#ffffff;fill-opacity:1;fill-rule:nonzero;stroke:none"
             d="m 1050.56,638.789 c 0,39.59 -17.53,82.309 -63.372,82.309 -24.961,0 -57.348,-17.039 -57.348,-69.598 0,-35.5 17.277,-81.598 64.555,-81.598 28.805,0 56.165,21.598 56.165,68.887 m -144.744,5.027 c 0,48.004 36.02,84.735 85.45,84.735 55.444,0 83.294,-40.094 83.294,-82.328 0,-48.473 -36.96,-83.762 -83.294,-83.762 -53.278,0 -85.45,38.168 -85.45,81.355" /><path
             id="path42"
             style="fill:#ffffff;fill-opacity:1;fill-rule:nonzero;stroke:none"
             d="m 1129.07,643.816 c -11.51,0 -12,-0.476 -12,-7.679 v -33.828 c 0,-25.2 1.21,-28.559 14.64,-30 l 6.96,-0.731 c 1.44,-0.949 0.96,-5.269 -0.49,-5.992 -12.96,0.488 -21.11,0.723 -30.48,0.723 -10.31,0 -18.46,-0.489 -27.83,-0.723 -1.44,0.723 -1.91,4.559 -0.47,5.992 l 4.07,0.731 c 13.43,2.379 13.92,4.8 13.92,30 v 86.398 c 0,25.199 -1.67,29.281 -14.17,30.242 l -6.24,0.481 c -1.43,0.957 -0.94,5.289 0.49,6 11.77,-0.242 19.92,-0.711 30.23,-0.711 9.37,0 17.52,0.226 27.84,0.711 1.45,-0.711 1.94,-5.043 0.47,-6 l -4.54,-0.481 c -13.91,-1.449 -14.4,-5.043 -14.4,-30.242 v -27.598 c 0,-7.441 0.49,-7.691 12,-7.691 h 68.64 c 11.52,0 12,0.25 12,7.691 v 27.598 c 0,25.199 -0.48,28.793 -14.63,30.242 l -4.57,0.481 c -1.45,0.957 -0.96,5.289 0.48,6 11.03,-0.485 19.18,-0.711 29.05,-0.711 9.34,0 17.52,0.226 28.32,0.711 1.41,-0.711 1.9,-5.043 0.49,-6 l -5.06,-0.481 c -13.92,-1.449 -14.41,-5.043 -14.41,-30.242 v -86.398 c 0,-25.2 0.49,-28.321 14.41,-30 l 5.75,-0.731 c 1.44,-0.949 0.96,-5.269 -0.47,-5.992 -11.51,0.488 -19.69,0.723 -29.03,0.723 -9.87,0 -18.49,-0.235 -29.05,-0.723 -1.44,0.723 -1.93,4.559 -0.48,5.992 l 4.57,0.731 c 14.63,2.379 14.63,4.8 14.63,30 v 33.828 c 0,7.203 -0.48,7.679 -12,7.679 h -68.64" /><path
             id="path44"
             style="fill:#ffffff;fill-opacity:1;fill-rule:nonzero;stroke:none"
             d="m 1413.49,607.109 c 0,-7.211 0,-35.769 0.7,-42.011 -0.46,-1.426 -1.9,-2.637 -4.53,-2.637 -2.89,4.082 -9.86,12.48 -30.74,36.23 l -55.67,63.379 c -6.47,7.426 -22.82,27.11 -27.84,32.387 h -0.48 c -0.97,-2.879 -1.2,-8.387 -1.2,-15.59 v -52.328 c 0,-11.269 0.23,-42.473 4.32,-49.66 1.45,-2.66 6.24,-4.102 12.24,-4.57 l 7.42,-0.731 c 1.46,-1.922 1.22,-4.801 -0.46,-5.992 -10.79,0.477 -19.2,0.723 -28.09,0.723 -10.06,0 -16.54,-0.246 -24.97,-0.723 -1.68,1.191 -1.9,4.566 -0.46,5.992 l 6.48,0.731 c 5.53,0.718 9.35,2.14 10.57,4.8 3.35,8.637 3.12,37.911 3.12,49.43 v 69.359 c 0,6.719 -0.25,11.774 -5.3,17.282 -3.36,3.359 -9.1,5.039 -14.87,5.769 l -4.07,0.469 c -1.44,1.441 -1.44,5.039 0.47,6.012 10.08,-0.711 22.8,-0.711 27.12,-0.711 3.84,0 7.93,0.23 11.05,0.711 4.8,-12.25 33.12,-43.93 41.02,-52.801 l 23.29,-26.149 c 16.56,-18.492 28.31,-31.929 39.59,-43.453 h 0.49 c 0.96,1.192 0.96,5.043 0.96,10.082 v 51.36 c 0,11.269 -0.24,42.469 -4.8,49.672 -1.44,2.168 -5.28,3.609 -14.88,4.808 l -4.07,0.469 c -1.68,1.441 -1.45,5.301 0.46,6.012 11.05,-0.481 19.21,-0.711 28.33,-0.711 10.31,0 16.56,0.23 24.72,0.711 1.92,-1.2 1.92,-4.571 0.49,-6.012 l -3.38,-0.469 c -7.66,-1.199 -12.47,-3.129 -13.45,-5.039 -4.05,-8.652 -3.58,-38.402 -3.58,-49.441 v -57.36" /><path
             id="path46"
             style="fill:#ffffff;fill-opacity:1;fill-rule:nonzero;stroke:none"
             d="m 1476.93,562.461 c -20.17,0 -32.89,6.238 -37.46,8.883 -2.85,5.277 -5.98,22.316 -6.48,33.597 1.22,1.68 4.81,2.168 5.77,0.719 3.6,-12.226 13.44,-35.758 41.27,-35.758 20.17,0 30.03,13.2 30.03,27.61 0,10.558 -2.18,22.316 -19.71,33.586 l -22.79,14.894 c -12.01,7.918 -25.91,21.61 -25.91,41.27 0,22.812 17.75,41.277 48.94,41.277 7.46,0 16.1,-1.437 22.33,-3.109 3.12,-0.965 6.47,-1.45 8.39,-1.45 2.17,-5.757 4.33,-19.199 4.33,-29.277 -0.95,-1.441 -4.8,-2.144 -6,-0.723 -3.12,11.532 -9.58,27.118 -32.64,27.118 -23.51,0 -28.56,-15.586 -28.56,-26.633 0,-13.914 11.53,-24.004 20.39,-29.524 l 19.22,-11.992 c 15.12,-9.371 30,-23.277 30,-46.09 0,-26.39 -19.93,-44.398 -51.12,-44.398" /><path
             id="path48"
             style="fill:#ffffff;fill-opacity:1;fill-rule:nonzero;stroke:none"
             d="m 1670.49,658.191 c -13.66,0 -14.23,-0.57 -14.23,-9.097 v -40.117 c 0,-29.875 1.43,-33.864 17.34,-35.563 l 8.27,-0.851 c 1.69,-1.141 1.13,-6.254 -0.56,-7.114 -15.36,0.586 -25.05,0.86 -36.13,0.86 -12.24,0 -21.92,-0.567 -33,-0.86 -1.72,0.86 -2.29,5.406 -0.57,7.114 l 4.83,0.851 c 15.92,2.84 16.5,5.688 16.5,35.563 v 102.414 c 0,29.882 -2.01,34.714 -16.78,35.851 l -7.4,0.571 c -1.7,1.132 -1.15,6.25 0.57,7.109 13.93,-0.277 23.61,-0.859 35.85,-0.859 11.08,0 20.77,0.289 32.98,0.859 1.72,-0.859 2.29,-5.977 0.57,-7.109 l -5.41,-0.571 c -16.49,-1.719 -17.06,-5.969 -17.06,-35.851 v -32.719 c 0,-8.817 0.57,-9.086 14.23,-9.086 h 81.36 c 13.66,0 14.21,0.269 14.21,9.086 v 32.719 c 0,29.882 -0.55,34.132 -17.35,35.851 l -5.4,0.571 c -1.71,1.132 -1.14,6.25 0.58,7.109 13.06,-0.57 22.75,-0.859 34.42,-0.859 11.08,0 20.76,0.289 33.57,0.859 1.69,-0.859 2.27,-5.977 0.55,-7.109 l -5.97,-0.571 c -16.49,-1.719 -17.07,-5.969 -17.07,-35.851 V 608.977 c 0,-29.875 0.58,-33.563 17.07,-35.563 l 6.83,-0.851 c 1.71,-1.141 1.13,-6.254 -0.58,-7.114 -13.64,0.586 -23.32,0.86 -34.4,0.86 -11.67,0 -21.91,-0.274 -34.42,-0.86 -1.72,0.86 -2.29,5.406 -0.58,7.114 l 5.4,0.851 c 17.35,2.84 17.35,5.688 17.35,35.563 v 40.117 c 0,8.527 -0.55,9.097 -14.21,9.097 h -81.36" /><path
             id="path50"
             style="fill:#ffffff;fill-opacity:1;fill-rule:nonzero;stroke:none"
             d="m 1956.22,638.789 c 0,39.59 -17.52,82.309 -63.37,82.309 -24.95,0 -57.35,-17.039 -57.35,-69.598 0,-35.5 17.28,-81.598 64.56,-81.598 28.81,0 56.16,21.598 56.16,68.887 m -144.73,5.027 c 0,48.004 36.01,84.735 85.45,84.735 55.43,0 83.27,-40.094 83.27,-82.328 0,-48.473 -36.95,-83.762 -83.27,-83.762 -53.28,0 -85.45,38.168 -85.45,81.355" /><path
             id="path52"
             style="fill:#ffffff;fill-opacity:1;fill-rule:nonzero;stroke:none"
             d="m 2023.66,602.305 c 0,-25.2 0.48,-28.321 15.82,-30 l 6.5,-0.719 c 1.43,-1.191 0.96,-5.277 -0.48,-6 -13.68,0.488 -21.59,0.723 -31.21,0.723 -10.08,0 -18.71,-0.235 -29.27,-0.723 -1.44,0.723 -1.92,4.559 -0.48,6 l 5.03,0.719 c 13.93,1.91 14.4,4.8 14.4,30 v 88.55 c 0,20.411 -0.47,24.5 -11.27,25.688 l -8.64,0.961 c -1.68,1.441 -1.44,5.039 0.48,6.004 12.72,1.68 27.59,1.926 47.52,1.926 19.91,0 34.8,-2.641 46.07,-9.61 11.04,-6.969 19.2,-19.437 19.2,-36 0,-22.082 -13.67,-33.121 -24,-38.16 -10.56,-5.039 -23.27,-7.199 -33.12,-7.199 -1.67,0.723 -1.67,4.32 -0.24,4.789 25.92,4.809 35.28,19.453 35.28,40.34 0,23.281 -13.67,38.39 -38.63,38.39 -12.71,0 -12.96,-0.949 -12.96,-8.648 V 602.305" /><path
             id="path54"
             style="fill:#ffffff;fill-opacity:1;fill-rule:nonzero;stroke:none"
             d="m 2123.52,688.711 c 0,25.199 -0.49,29.039 -14.41,30.23 l -6,0.477 c -1.45,0.973 -0.96,5.305 0.47,6.012 11.76,-0.481 19.45,-0.707 30.25,-0.707 9.35,0 17.53,0.226 27.85,0.707 1.43,-0.707 1.91,-5.039 0.47,-6.012 l -4.55,-0.477 c -13.94,-1.441 -14.42,-5.031 -14.42,-30.23 v -27.613 c 0,-4.555 0.48,-9.125 3.14,-9.125 2.15,0 5.04,1.449 6.71,2.656 3.36,2.871 9.61,9.121 12.24,11.523 l 25.91,25.668 c 4.56,4.325 16.33,16.559 18.72,19.934 1.21,1.668 1.69,2.875 1.69,3.836 0,0.953 -0.96,1.672 -4.08,2.402 l -6.47,1.426 c -1.69,1.68 -1.45,4.812 0.47,6.012 8.39,-0.481 17.99,-0.707 26.4,-0.707 8.4,0 16.55,0.226 23.76,0.707 1.67,-1.2 1.9,-4.571 0.48,-6.012 -6.24,-0.477 -15.6,-2.875 -22.33,-6.719 -6.7,-3.836 -20.15,-15.105 -33.59,-27.836 l -21.6,-20.39 c -3.36,-3.375 -5.52,-5.532 -5.52,-7.453 0,-1.668 1.44,-3.598 4.56,-7.43 22.8,-26.156 41.28,-47.77 60,-67.438 5.76,-5.761 11.05,-8.89 19.22,-9.851 l 6.46,-0.719 c 1.69,-1.191 1.2,-5.273 -0.48,-6.008 -6.24,0.5 -15.6,0.735 -26.88,0.735 -9.83,0 -18.24,-0.235 -29.28,-0.735 -1.67,0.5 -2.4,4.578 -0.96,6.008 l 5.52,0.969 c 3.36,0.48 5.76,1.199 5.76,2.39 0,1.45 -1.68,3.36 -3.36,5.528 -4.57,5.761 -10.8,12.23 -19.92,22.562 l -19.2,21.598 c -13.68,15.351 -17.52,20.152 -23.28,20.152 -3.61,0 -4.09,-3.121 -4.09,-11.519 v -30.961 c 0,-25.192 0.48,-28.551 13.93,-30 l 6.48,-0.719 c 1.43,-0.961 0.97,-5.273 -0.48,-6.008 -11.75,0.5 -19.93,0.735 -29.28,0.735 -9.84,0 -18,-0.235 -27.83,-0.735 -1.44,0.735 -1.94,4.328 -0.49,6.008 l 4.8,0.719 c 12.72,1.918 13.21,4.808 13.21,30 v 86.41" /><path
             id="path56"
             style="fill:#ffffff;fill-opacity:1;fill-rule:nonzero;stroke:none"
             d="m 2288.24,688.223 c 0,25.449 -0.48,29.531 -14.64,30.722 l -6,0.481 c -1.45,0.965 -0.96,5.285 0.48,6.008 12,-0.485 20.16,-0.723 30.24,-0.723 9.59,0 17.76,0.238 29.77,0.723 1.44,-0.723 1.91,-5.043 0.47,-6.008 l -6,-0.481 c -14.16,-1.191 -14.65,-5.273 -14.65,-30.722 v -85.43 c 0,-25.449 0.49,-28.809 14.65,-30.488 l 6,-0.723 c 1.44,-0.957 0.97,-5.273 -0.47,-5.996 -12.01,0.488 -20.18,0.723 -29.77,0.723 -10.08,0 -18.24,-0.235 -30.24,-0.723 -1.44,0.723 -1.93,4.555 -0.48,5.996 l 6,0.723 c 14.16,1.679 14.64,5.039 14.64,30.488 v 85.43" /><path
             id="path58"
             style="fill:#ffffff;fill-opacity:1;fill-rule:nonzero;stroke:none"
             d="m 2495.84,607.109 c 0,-7.211 0,-35.769 0.73,-42.011 -0.49,-1.426 -1.91,-2.637 -4.56,-2.637 -2.88,4.082 -9.84,12.48 -30.72,36.23 l -55.67,63.379 c -6.49,7.426 -22.82,27.11 -27.85,32.387 h -0.47 c -0.97,-2.879 -1.22,-8.387 -1.22,-15.59 v -52.328 c 0,-11.269 0.25,-42.473 4.33,-49.66 1.45,-2.66 6.24,-4.102 12.25,-4.57 l 7.43,-0.731 c 1.44,-1.922 1.2,-4.801 -0.48,-5.992 -10.8,0.477 -19.2,0.723 -28.09,0.723 -10.06,0 -16.56,-0.246 -24.95,-0.723 -1.68,1.191 -1.92,4.566 -0.48,5.992 l 6.49,0.731 c 5.51,0.718 9.35,2.14 10.55,4.8 3.36,8.637 3.12,37.911 3.12,49.43 v 69.359 c 0,6.719 -0.23,11.774 -5.27,17.282 -3.37,3.359 -9.13,5.039 -14.89,5.769 l -4.08,0.469 c -1.44,1.441 -1.44,5.039 0.49,6.012 10.08,-0.711 22.79,-0.711 27.11,-0.711 3.84,0 7.92,0.23 11.03,0.711 4.81,-12.25 33.13,-43.93 41.04,-52.801 l 23.29,-26.149 c 16.55,-18.492 28.31,-31.929 39.59,-43.453 h 0.49 c 0.96,1.192 0.96,5.043 0.96,10.082 v 51.36 c 0,11.269 -0.25,42.469 -4.8,49.672 -1.43,2.168 -5.28,3.609 -14.87,4.808 l -4.08,0.469 c -1.69,1.441 -1.45,5.301 0.46,6.012 11.05,-0.481 19.21,-0.711 28.33,-0.711 10.33,0 16.57,0.23 24.72,0.711 1.93,-1.2 1.93,-4.571 0.48,-6.012 l -3.36,-0.469 c -7.68,-1.199 -12.48,-3.129 -13.45,-5.039 -4.07,-8.652 -3.6,-38.402 -3.6,-49.441 v -57.36" /><path
             id="path60"
             style="fill:#ffffff;fill-opacity:1;fill-rule:nonzero;stroke:none"
             d="m 2558.87,562.461 c -20.16,0 -32.87,6.238 -37.44,8.883 -2.88,5.277 -6,22.316 -6.48,33.597 1.2,1.68 4.82,2.168 5.75,0.719 3.61,-12.226 13.45,-35.758 41.28,-35.758 20.17,0 30.01,13.2 30.01,27.61 0,10.558 -2.17,22.316 -19.69,33.586 l -22.79,14.894 c -12,7.918 -25.93,21.61 -25.93,41.27 0,22.812 17.77,41.277 48.97,41.277 7.44,0 16.07,-1.437 22.32,-3.109 3.12,-0.965 6.48,-1.45 8.4,-1.45 2.17,-5.757 4.32,-19.199 4.32,-29.277 -0.96,-1.441 -4.8,-2.144 -6.01,-0.723 -3.11,11.532 -9.59,27.118 -32.62,27.118 -23.52,0 -28.57,-15.586 -28.57,-26.633 0,-13.914 11.52,-24.004 20.39,-29.524 l 19.21,-11.992 c 15.13,-9.371 30.01,-23.277 30.01,-46.09 0,-26.39 -19.93,-44.398 -51.13,-44.398" /></g></g><path
         id="path62"
         style="fill:#ffffff;fill-opacity:1;fill-rule:nonzero;stroke:none"
         d="m 760.059,416.965 c -0.993,-2.856 -0.871,-2.981 2.601,-2.981 h 15.262 c 3.598,0 3.848,0.496 2.726,3.848 l -6.699,20.215 c -0.988,2.976 -2.097,6.328 -2.851,7.82 h -0.246 c -0.372,-0.625 -1.614,-3.601 -2.981,-7.32 z m 24.558,-11.035 c -0.867,2.722 -1.359,3.093 -5.074,3.093 h -18.742 c -3.102,0 -3.844,-0.371 -4.711,-2.976 l -4.344,-13.027 c -1.859,-5.586 -2.726,-8.938 -2.726,-10.293 0,-1.497 0.621,-2.239 3.597,-2.485 l 4.094,-0.379 c 0.867,-0.605 0.867,-2.597 -0.25,-3.093 -3.223,0.242 -7.07,0.242 -12.902,0.371 -4.102,0 -8.559,-0.246 -11.911,-0.371 -0.75,0.496 -0.988,2.488 -0.253,3.093 l 4.093,0.379 c 2.981,0.246 5.711,1.613 7.45,6.074 2.234,5.704 5.71,13.782 10.917,27.668 l 12.653,33.496 c 1.738,4.461 2.48,6.817 2.109,8.809 2.981,0.867 5.094,3.098 6.449,4.707 0.747,0 1.614,-0.242 1.864,-1.113 1.609,-5.457 3.597,-11.16 5.457,-16.621 l 17.004,-49.871 c 3.589,-10.664 5.211,-12.532 10.535,-13.149 l 3.355,-0.379 c 0.867,-0.605 0.614,-2.597 0,-3.093 -5.093,0.242 -9.433,0.371 -15.015,0.371 -5.946,0 -10.668,-0.246 -14.266,-0.371 -0.992,0.496 -1.109,2.488 -0.25,3.093 l 3.598,0.379 c 2.613,0.246 4.34,0.988 4.34,2.231 0,1.355 -0.618,3.601 -1.61,6.582 l -5.461,16.875" /><path
         id="path64"
         style="fill:#ffffff;fill-opacity:1;fill-rule:nonzero;stroke:none"
         d="m 843.633,395.742 c 0,-13.015 0.25,-14.637 8.187,-15.5 l 3.352,-0.379 c 0.75,-0.617 0.504,-2.722 -0.25,-3.093 -7.07,0.242 -11.156,0.371 -16.129,0.371 -5.207,0 -9.672,-0.129 -15.133,-0.371 -0.746,0.371 -0.988,2.351 -0.246,3.093 l 2.609,0.379 c 7.192,0.988 7.438,2.485 7.438,15.5 v 45.781 c 0,10.547 -0.246,12.657 -5.828,13.274 l -4.469,0.496 c -0.867,0.742 -0.742,2.605 0.25,3.105 6.582,0.86 14.266,0.989 24.57,0.989 10.286,0 17.977,-1.367 23.809,-4.961 5.711,-3.598 9.93,-10.051 9.93,-18.606 0,-11.418 -7.071,-17.121 -12.41,-19.726 -5.461,-2.61 -12.028,-3.723 -17.122,-3.723 -0.859,0.371 -0.859,2.231 -0.117,2.484 13.399,2.481 18.231,10.047 18.231,20.836 0,12.036 -7.075,19.836 -19.973,19.836 -6.566,0 -6.699,-0.476 -6.699,-4.453 v -55.332" /><path
         id="path66"
         style="fill:#ffffff;fill-opacity:1;fill-rule:nonzero;stroke:none"
         d="m 914.684,395.742 c 0,-13.015 0.25,-14.637 8.187,-15.5 l 3.352,-0.379 c 0.75,-0.617 0.5,-2.722 -0.25,-3.093 -7.071,0.242 -11.16,0.371 -16.129,0.371 -5.211,0 -9.672,-0.129 -15.133,-0.371 -0.746,0.371 -0.988,2.351 -0.246,3.093 l 2.609,0.379 c 7.188,0.988 7.438,2.485 7.438,15.5 v 45.781 c 0,10.547 -0.25,12.657 -5.828,13.274 l -4.469,0.496 c -0.871,0.742 -0.742,2.605 0.25,3.105 6.582,0.86 14.269,0.989 24.566,0.989 10.289,0 17.981,-1.367 23.813,-4.961 5.711,-3.598 9.929,-10.051 9.929,-18.606 0,-11.418 -7.07,-17.121 -12.414,-19.726 -5.457,-2.61 -12.023,-3.723 -17.117,-3.723 -0.871,0.371 -0.871,2.231 -0.117,2.484 13.398,2.481 18.227,10.047 18.227,20.836 0,12.036 -7.071,19.836 -19.969,19.836 -6.57,0 -6.699,-0.476 -6.699,-4.453 v -55.332" /><path
         id="path68"
         style="fill:#ffffff;fill-opacity:1;fill-rule:nonzero;stroke:none"
         d="m 975.688,440.41 c 0,13.02 -0.25,15.012 -8.059,15.613 l -3.113,0.266 c -0.739,0.488 -0.489,2.727 0.25,3.098 6.953,-0.246 11.172,-0.371 16.132,-0.371 4.84,0 9.059,0.125 15.258,0.371 0.742,-0.371 0.992,-2.61 0.25,-3.098 l -2.976,-0.266 c -7.321,-0.601 -7.571,-2.593 -7.571,-15.613 v -43.176 c 0,-7.808 0.379,-11.043 2.61,-13.394 1.359,-1.367 3.719,-2.856 13.521,-2.856 10.55,0 13.15,0.5 15.14,1.614 2.48,1.484 5.7,5.957 8.18,12.285 0.75,0.613 3.1,0.117 3.1,-0.75 0,-1.36 -3.47,-14.016 -5.21,-17.363 -6.32,0.242 -18.11,0.371 -30.891,0.371 h -11.411 c -5.21,0 -9.179,-0.129 -16.132,-0.371 -0.739,0.371 -0.989,2.351 -0.25,3.093 l 3.73,0.379 c 7.192,0.742 7.442,2.485 7.442,15.5 v 44.668" /><path
         id="path70"
         style="fill:#ffffff;fill-opacity:1;fill-rule:nonzero;stroke:none"
         d="m 1050.33,440.156 c 0,13.157 -0.25,15.266 -7.57,15.879 l -3.1,0.254 c -0.74,0.488 -0.5,2.727 0.25,3.098 6.2,-0.246 10.42,-0.371 15.63,-0.371 4.96,0 9.18,0.125 15.38,0.371 0.75,-0.371 1,-2.61 0.25,-3.098 l -3.1,-0.254 c -7.32,-0.613 -7.57,-2.722 -7.57,-15.879 v -44.16 c 0,-13.152 0.25,-14.891 7.57,-15.754 l 3.1,-0.379 c 0.75,-0.488 0.5,-2.722 -0.25,-3.093 -6.2,0.242 -10.42,0.371 -15.38,0.371 -5.21,0 -9.43,-0.129 -15.63,-0.371 -0.75,0.371 -0.99,2.339 -0.25,3.093 l 3.1,0.379 c 7.32,0.863 7.57,2.602 7.57,15.754 v 44.16" /><path
         id="path72"
         style="fill:#ffffff;fill-opacity:1;fill-rule:nonzero;stroke:none"
         d="m 1098.45,440.41 c 0,12.903 -0.25,14.758 -7.57,15.613 l -1.98,0.266 c -0.76,0.488 -0.5,2.727 0.25,3.098 5.33,-0.246 9.55,-0.371 14.63,-0.371 h 23.33 c 7.94,0 15.26,0 16.75,0.371 0.73,-2.114 1.48,-11.035 1.97,-16.496 -0.49,-0.75 -2.47,-0.996 -3.09,-0.254 -1.86,5.832 -2.98,10.176 -9.43,11.789 -2.6,0.625 -6.57,0.742 -12.03,0.742 h -8.93 c -3.73,0 -3.73,-0.246 -3.73,-4.973 v -24.797 c 0,-3.472 0.38,-3.472 4.09,-3.472 h 7.2 c 5.21,0 9.05,0.242 10.55,0.742 1.49,0.496 2.36,1.238 2.98,4.344 l 0.99,5.078 c 0.62,0.754 2.73,0.754 3.22,-0.117 0,-2.981 -0.49,-7.825 -0.49,-12.532 0,-4.468 0.49,-9.175 0.49,-11.914 -0.49,-0.867 -2.6,-0.867 -3.22,-0.117 l -1.12,4.836 c -0.49,2.234 -1.36,4.094 -3.84,4.719 -1.75,0.496 -4.72,0.613 -9.56,0.613 h -7.2 c -3.71,0 -4.09,-0.117 -4.09,-3.348 v -17.492 c 0,-6.57 0.38,-10.793 2.36,-12.898 1.49,-1.485 4.09,-2.856 15.01,-2.856 9.55,0 13.15,0.5 15.88,1.86 2.23,1.238 5.58,5.586 8.81,12.039 0.87,0.613 2.6,0.246 3.1,-0.867 -0.87,-4.348 -3.98,-13.899 -5.58,-17.246 -11.17,0.242 -22.21,0.371 -33.25,0.371 h -11.17 c -5.33,0 -9.55,-0.129 -16.87,-0.371 -0.74,0.371 -0.99,2.351 -0.25,3.093 l 4.1,0.379 c 7.07,0.617 7.69,2.485 7.69,15.5 v 44.668" /><path
         id="path74"
         style="fill:#ffffff;fill-opacity:1;fill-rule:nonzero;stroke:none"
         d="m 1187.24,398.605 c 0,-6.585 0.38,-10.546 2.48,-13.527 2.73,-3.848 7.45,-5.09 15.26,-5.09 24.07,0 34.85,15.754 34.85,38.828 0,13.657 -6.56,36.719 -39.06,36.719 -7.32,0 -11.29,-0.984 -12.29,-1.719 -0.99,-0.757 -1.24,-3.855 -1.24,-9.441 z m -10.17,44.286 c 0,8.679 -0.62,11.289 -5.83,12.031 l -2.73,0.371 c -1,0.613 -1.12,2.605 0.12,3.105 10.54,0.618 20.59,0.989 31.14,0.989 10.42,0 19.22,-0.742 27.29,-3.723 16.74,-6.074 25.18,-20.226 25.18,-36.594 0,-15.757 -7.56,-29.273 -21.7,-36.968 -8.07,-4.336 -18.25,-5.957 -27.8,-5.957 -7.94,0 -15.87,1.003 -20.22,1.003 -5.21,0 -9.67,-0.136 -15.5,-0.378 -0.75,0.378 -0.99,2.351 -0.25,3.093 l 2.85,0.379 c 7.2,0.988 7.45,2.485 7.45,15.5 v 47.149" /><path
         id="path76"
         style="fill:#ffffff;fill-opacity:1;fill-rule:nonzero;stroke:none"
         d="m 1327.23,395.742 c 0,-13.015 0.25,-14.637 8.19,-15.5 l 3.35,-0.379 c 0.75,-0.617 0.5,-2.722 -0.25,-3.093 -7.07,0.242 -11.16,0.371 -16.13,0.371 -5.21,0 -9.67,-0.129 -15.13,-0.371 -0.75,0.371 -0.99,2.351 -0.25,3.093 l 2.61,0.379 c 7.19,0.988 7.44,2.485 7.44,15.5 v 45.781 c 0,10.547 -0.25,12.657 -5.83,13.274 l -4.47,0.496 c -0.87,0.742 -0.74,2.605 0.25,3.105 6.58,0.86 14.27,0.989 24.57,0.989 10.29,0 17.98,-1.367 23.81,-4.961 5.71,-3.598 9.93,-10.051 9.93,-18.606 0,-11.418 -7.07,-17.121 -12.41,-19.726 -5.46,-2.61 -12.03,-3.723 -17.12,-3.723 -0.87,0.371 -0.87,2.231 -0.12,2.484 13.4,2.481 18.23,10.047 18.23,20.836 0,12.036 -7.07,19.836 -19.97,19.836 -6.57,0 -6.7,-0.476 -6.7,-4.453 v -55.332" /><path
         id="path78"
         style="fill:#ffffff;fill-opacity:1;fill-rule:nonzero;stroke:none"
         d="m 1406.1,417.207 c -5.96,0 -6.21,-0.242 -6.21,-3.965 v -17.5 c 0,-13.015 0.62,-14.758 7.58,-15.5 l 3.59,-0.379 c 0.74,-0.488 0.5,-2.722 -0.24,-3.093 -6.7,0.242 -10.93,0.371 -15.76,0.371 -5.34,0 -9.56,-0.246 -14.39,-0.371 -0.75,0.371 -1,2.351 -0.25,3.093 l 2.11,0.379 c 6.94,1.242 7.19,2.485 7.19,15.5 v 44.668 c 0,13.02 -0.87,15.125 -7.32,15.625 l -3.22,0.254 c -0.75,0.488 -0.5,2.727 0.25,3.098 6.07,-0.129 10.29,-0.371 15.63,-0.371 4.83,0 9.06,0.125 14.39,0.371 0.75,-0.371 0.99,-2.61 0.24,-3.098 l -2.35,-0.254 c -7.2,-0.742 -7.45,-2.605 -7.45,-15.625 v -14.265 c 0,-3.848 0.25,-3.977 6.21,-3.977 h 35.48 c 5.95,0 6.2,0.129 6.2,3.977 v 14.265 c 0,13.02 -0.25,14.883 -7.57,15.625 l -2.34,0.254 c -0.76,0.488 -0.51,2.727 0.24,3.098 5.7,-0.246 9.92,-0.371 15.02,-0.371 4.82,0 9.04,0.125 14.63,0.371 0.75,-0.371 0.99,-2.61 0.24,-3.098 l -2.59,-0.254 c -7.21,-0.742 -7.46,-2.605 -7.46,-15.625 v -44.668 c 0,-13.015 0.25,-14.637 7.46,-15.5 l 2.97,-0.379 c 0.75,-0.488 0.49,-2.722 -0.25,-3.093 -5.96,0.242 -10.18,0.371 -15,0.371 -5.1,0 -9.57,-0.129 -15.02,-0.371 -0.75,0.371 -1,2.351 -0.24,3.093 l 2.34,0.379 c 7.57,1.242 7.57,2.485 7.57,15.5 v 17.5 c 0,3.723 -0.25,3.965 -6.2,3.965 h -35.48" /><path
         id="path80"
         style="fill:#ffffff;fill-opacity:1;fill-rule:nonzero;stroke:none"
         d="m 1521.54,395.996 c 0,-13.269 0.75,-15.266 7.45,-15.754 l 4.71,-0.379 c 0.75,-0.73 0.5,-2.722 -0.24,-3.093 -7.7,0.242 -11.92,0.371 -16.88,0.371 -5.2,0 -9.67,-0.129 -16.25,-0.371 -0.74,0.371 -0.98,2.363 -0.25,3.093 l 3.86,0.379 c 7.18,0.742 7.44,2.485 7.44,15.754 v 6.328 c 0,6.817 -0.37,8.438 -3.98,15.379 l -14.64,28.535 c -4.22,8.188 -6.08,8.813 -9.8,9.426 l -3.47,0.625 c -0.74,0.867 -0.62,2.598 0.25,3.098 3.97,-0.246 8.43,-0.371 14.39,-0.371 5.7,0 10.18,0.125 13.27,0.371 1.13,-0.371 1.13,-2.356 0.37,-3.098 l -1.61,-0.254 c -4.33,-0.613 -5.2,-1.238 -5.2,-2.226 0,-1.243 3.22,-8.321 3.84,-9.563 4.59,-9.18 9.18,-18.973 14.02,-27.535 3.85,6.57 7.94,13.769 11.66,20.965 3.48,6.457 8.06,14.89 8.06,16.379 0,0.742 -2.23,1.609 -5.21,1.98 l -2.23,0.254 c -0.87,0.867 -0.75,2.598 0.25,3.098 4.46,-0.246 8.06,-0.371 11.9,-0.371 3.85,0 7.33,0.125 11.54,0.371 0.99,-0.617 1.12,-2.356 0.25,-3.098 l -3.48,-0.625 c -6.44,-1.113 -10.16,-8.934 -16.36,-19.601 l -7.83,-13.524 c -5.45,-9.426 -5.83,-10.535 -5.83,-20.098 v -6.445" /><path
         id="path82"
         style="fill:#ffffff;fill-opacity:1;fill-rule:nonzero;stroke:none"
         d="m 1585.03,375.156 c -10.42,0 -17,3.223 -19.35,4.59 -1.49,2.727 -3.11,11.531 -3.36,17.363 0.63,0.871 2.48,1.121 2.98,0.371 1.87,-6.328 6.95,-18.476 21.34,-18.476 10.42,0 15.51,6.816 15.51,14.258 0,5.461 -1.12,11.543 -10.17,17.375 l -11.79,7.683 c -6.21,4.102 -13.4,11.172 -13.4,21.336 0,11.789 9.18,21.34 25.31,21.34 3.85,0 8.31,-0.742 11.54,-1.609 1.6,-0.5 3.35,-0.742 4.34,-0.742 1.12,-2.981 2.23,-9.922 2.23,-15.137 -0.49,-0.742 -2.49,-1.113 -3.1,-0.371 -1.61,5.957 -4.96,14.019 -16.88,14.019 -12.15,0 -14.75,-8.062 -14.75,-13.777 0,-7.188 5.95,-12.402 10.54,-15.254 l 9.93,-6.199 c 7.81,-4.848 15.51,-12.031 15.51,-23.821 0,-13.652 -10.3,-22.949 -26.43,-22.949" /><path
         id="path84"
         style="fill:#ffffff;fill-opacity:1;fill-rule:nonzero;stroke:none"
         d="m 1639.82,440.156 c 0,13.157 -0.24,15.266 -7.56,15.879 l -3.1,0.254 c -0.74,0.488 -0.5,2.727 0.24,3.098 6.21,-0.246 10.42,-0.371 15.64,-0.371 4.96,0 9.18,0.125 15.38,0.371 0.75,-0.371 1,-2.61 0.24,-3.098 l -3.09,-0.254 c -7.33,-0.613 -7.57,-2.722 -7.57,-15.879 v -44.16 c 0,-13.152 0.24,-14.891 7.57,-15.754 l 3.09,-0.379 c 0.76,-0.488 0.51,-2.722 -0.24,-3.093 -6.2,0.242 -10.42,0.371 -15.38,0.371 -5.22,0 -9.43,-0.129 -15.64,-0.371 -0.74,0.371 -0.98,2.339 -0.24,3.093 l 3.1,0.379 c 7.32,0.863 7.56,2.602 7.56,15.754 v 44.16" /><path
         id="path86"
         style="fill:#ffffff;fill-opacity:1;fill-rule:nonzero;stroke:none"
         d="m 1686.94,450.461 c 9.07,7.066 20.6,10.535 33.51,10.535 6.7,0 16.12,-1.355 21.95,-2.976 1.49,-0.375 2.36,-0.618 3.48,-0.493 0.12,-2.859 0.74,-10.672 1.73,-18.242 -0.62,-0.867 -2.48,-0.984 -3.35,-0.242 -1.86,8.437 -7.44,18.113 -25.43,18.113 -18.99,0 -35.11,-12.039 -35.11,-37.715 0,-26.05 16.5,-40.449 36.85,-40.449 16,0 23.07,10.434 25.92,17.746 0.87,0.625 2.74,0.371 3.23,-0.5 -0.87,-6.441 -4.09,-14.636 -5.95,-16.992 -1.49,-0.254 -2.98,-0.738 -4.35,-1.238 -2.72,-0.996 -11.66,-2.852 -19.6,-2.852 -11.16,0 -21.83,2.227 -30.88,8.313 -9.94,6.824 -17.62,18.113 -17.62,34.109 0,13.77 6.2,25.559 15.62,32.883" /><path
         id="path88"
         style="fill:#ffffff;fill-opacity:1;fill-rule:nonzero;stroke:none"
         d="m 1786.15,375.156 c -10.42,0 -17,3.223 -19.34,4.59 -1.5,2.727 -3.12,11.531 -3.36,17.363 0.62,0.871 2.48,1.121 2.98,0.371 1.86,-6.328 6.94,-18.476 21.33,-18.476 10.42,0 15.51,6.816 15.51,14.258 0,5.461 -1.12,11.543 -10.16,17.375 l -11.8,7.683 c -6.2,4.102 -13.4,11.172 -13.4,21.336 0,11.789 9.18,21.34 25.31,21.34 3.85,0 8.31,-0.742 11.55,-1.609 1.6,-0.5 3.35,-0.742 4.33,-0.742 1.11,-2.981 2.23,-9.922 2.23,-15.137 -0.49,-0.742 -2.48,-1.113 -3.1,-0.371 -1.61,5.957 -4.96,14.019 -16.87,14.019 -12.16,0 -14.76,-8.062 -14.76,-13.777 0,-7.188 5.95,-12.402 10.54,-15.254 l 9.93,-6.199 c 7.81,-4.848 15.51,-12.031 15.51,-23.821 0,-13.652 -10.29,-22.949 -26.43,-22.949" /><path
         id="path90"
         style="fill:#ffffff;fill-opacity:1;fill-rule:nonzero;stroke:none"
         d="m 1878.15,440.41 c 0,13.02 -0.24,15.012 -8.05,15.613 l -3.11,0.266 c -0.74,0.488 -0.5,2.727 0.25,3.098 6.94,-0.246 11.16,-0.371 16.12,-0.371 4.84,0 9.06,0.125 15.26,0.371 0.75,-0.371 0.99,-2.61 0.25,-3.098 l -2.97,-0.266 c -7.33,-0.601 -7.58,-2.593 -7.58,-15.613 v -43.176 c 0,-7.808 0.38,-11.043 2.62,-13.394 1.35,-1.367 3.71,-2.856 13.51,-2.856 10.55,0 13.15,0.5 15.14,1.614 2.48,1.484 5.7,5.957 8.18,12.285 0.75,0.613 3.1,0.117 3.1,-0.75 0,-1.36 -3.47,-14.016 -5.21,-17.363 -6.32,0.242 -18.1,0.371 -30.88,0.371 h -11.42 c -5.21,0 -9.18,-0.129 -16.12,-0.371 -0.75,0.371 -0.99,2.351 -0.25,3.093 l 3.72,0.379 c 7.2,0.742 7.44,2.485 7.44,15.5 v 44.668" /><path
         id="path92"
         style="fill:#ffffff;fill-opacity:1;fill-rule:nonzero;stroke:none"
         d="m 1964.46,416.965 c -0.98,-2.856 -0.87,-2.981 2.61,-2.981 h 15.25 c 3.61,0 3.85,0.496 2.74,3.848 l -6.7,20.215 c -1,2.976 -2.11,6.328 -2.85,7.82 h -0.26 c -0.37,-0.625 -1.61,-3.601 -2.97,-7.32 z m 24.56,-11.035 c -0.87,2.722 -1.36,3.093 -5.07,3.093 h -18.74 c -3.1,0 -3.84,-0.371 -4.72,-2.976 l -4.34,-13.027 c -1.85,-5.586 -2.72,-8.938 -2.72,-10.293 0,-1.497 0.61,-2.239 3.59,-2.485 l 4.09,-0.379 c 0.87,-0.605 0.87,-2.597 -0.25,-3.093 -3.22,0.242 -7.07,0.242 -12.89,0.371 -4.1,0 -8.57,-0.246 -11.92,-0.371 -0.74,0.496 -0.99,2.488 -0.25,3.093 l 4.1,0.379 c 2.97,0.246 5.71,1.613 7.44,6.074 2.23,5.704 5.71,13.782 10.92,27.668 l 12.67,33.496 c 1.73,4.461 2.47,6.817 2.1,8.809 2.97,0.867 5.08,3.098 6.44,4.707 0.74,0 1.61,-0.242 1.86,-1.113 1.62,-5.457 3.6,-11.16 5.47,-16.621 l 16.99,-49.871 c 3.59,-10.664 5.21,-12.532 10.55,-13.149 l 3.34,-0.379 c 0.87,-0.605 0.62,-2.597 0,-3.093 -5.08,0.242 -9.43,0.371 -15,0.371 -5.96,0 -10.68,-0.246 -14.28,-0.371 -0.99,0.496 -1.11,2.488 -0.25,3.093 l 3.61,0.379 c 2.6,0.246 4.33,0.988 4.33,2.231 0,1.355 -0.62,3.601 -1.61,6.582 l -5.46,16.875" /><path
         id="path94"
         style="fill:#ffffff;fill-opacity:1;fill-rule:nonzero;stroke:none"
         d="m 2047.91,397.605 c 0,-4.46 0.25,-10.789 2.61,-13.535 2.35,-2.84 6.08,-3.457 9.79,-3.457 11.05,0 19.48,4.961 19.48,17.367 0,9.801 -4.97,21.208 -24.68,21.208 -6.7,0 -7.2,-0.743 -7.2,-3.219 z m 0,28.782 c 0,-3.477 0.13,-3.719 6.45,-3.477 12.65,0.496 19.48,4.219 19.48,15.879 0,12.156 -9.06,16.746 -18.49,16.746 -2.72,0 -4.59,-0.242 -5.7,-0.738 -1.24,-0.371 -1.74,-0.988 -1.74,-3.234 z m -10.18,16.504 c 0,9.179 -0.48,11.535 -6.07,12.031 l -3.96,0.371 c -1,0.742 -0.88,2.605 0.11,3.105 6.7,0.618 15.14,0.989 26.68,0.989 7.81,0 15.26,-0.617 20.84,-3.481 5.33,-2.593 9.43,-7.554 9.43,-15.496 0,-8.933 -5.21,-13.523 -12.65,-17.004 0,-1.238 0.99,-1.609 2.34,-1.851 6.7,-1.242 16.63,-7.446 16.63,-20.727 0,-14.383 -10.67,-24.058 -32.99,-24.058 -3.6,0 -9.68,0.371 -14.89,0.371 -5.47,0 -9.68,-0.246 -14.27,-0.371 -0.75,0.371 -0.99,2.351 -0.25,3.093 l 2.24,0.379 c 6.57,1.113 6.81,2.485 6.81,15.488 v 47.161" /><path
         id="path96"
         style="fill:#ffffff;fill-opacity:1;fill-rule:nonzero;stroke:none"
         d="m 2180.49,414.602 c 0,20.464 -9.05,42.554 -32.76,42.554 -12.89,0 -29.64,-8.804 -29.64,-35.972 0,-18.364 8.94,-42.18 33.37,-42.18 14.89,0 29.03,11.164 29.03,35.598 m -74.81,2.605 c 0,24.813 18.62,43.789 44.16,43.789 28.67,0 43.05,-20.715 43.05,-42.551 0,-25.054 -19.1,-43.289 -43.05,-43.289 -27.54,0 -44.16,19.727 -44.16,42.051" /><path
         id="path98"
         style="fill:#ffffff;fill-opacity:1;fill-rule:nonzero;stroke:none"
         d="m 2224.49,422.539 c 0,-2.226 0,-3.594 0.37,-4.094 0.37,-0.371 2.23,-0.613 8.56,-0.613 4.47,0 9.18,0.488 12.77,3.223 3.36,2.605 6.21,6.941 6.21,15.383 0,9.8 -6.07,19.097 -19.84,19.097 -7.7,0 -8.07,-0.484 -8.07,-3.965 z m -10.17,17.742 c 0,11.789 -0.37,13.899 -5.46,14.516 l -3.98,0.496 c -0.86,0.613 -0.86,2.605 0.14,3.105 6.93,0.618 15.5,0.989 27.66,0.989 7.69,0 15.01,-0.617 20.72,-3.711 5.95,-3.11 10.29,-8.696 10.29,-17.375 0,-11.785 -9.31,-18.242 -15.51,-20.723 -0.62,-0.742 0,-1.98 0.63,-2.976 9.92,-15.997 16.49,-25.93 24.93,-33 2.11,-1.856 5.21,-3.223 8.56,-3.465 0.62,-0.254 0.75,-1.242 0.12,-1.742 -1.11,-0.372 -3.1,-0.625 -5.46,-0.625 -10.53,0 -16.86,3.109 -25.67,15.636 -3.23,4.59 -8.32,13.145 -12.17,18.731 -1.85,2.722 -3.84,3.972 -8.81,3.972 -5.57,0 -5.82,-0.125 -5.82,-2.73 v -15.637 c 0,-13.015 0.25,-14.512 7.44,-15.5 l 2.6,-0.379 c 0.75,-0.617 0.51,-2.722 -0.25,-3.093 -5.57,0.242 -9.79,0.371 -14.75,0.371 -5.21,0 -9.69,-0.129 -15.51,-0.371 -0.74,0.371 -0.99,2.222 -0.25,3.093 l 3.11,0.379 c 7.18,0.863 7.44,2.485 7.44,15.5 v 44.539" /><path
         id="path100"
         style="fill:#ffffff;fill-opacity:1;fill-rule:nonzero;stroke:none"
         d="m 2310.55,416.965 c -1,-2.856 -0.88,-2.981 2.59,-2.981 h 15.26 c 3.61,0 3.85,0.496 2.73,3.848 l -6.7,20.215 c -0.99,2.976 -2.11,6.328 -2.85,7.82 h -0.25 c -0.37,-0.625 -1.6,-3.601 -2.97,-7.32 z m 24.55,-11.035 c -0.86,2.722 -1.36,3.093 -5.08,3.093 h -18.73 c -3.11,0 -3.85,-0.371 -4.72,-2.976 l -4.34,-13.027 c -1.86,-5.586 -2.72,-8.938 -2.72,-10.293 0,-1.497 0.61,-2.239 3.6,-2.485 l 4.08,-0.379 c 0.88,-0.605 0.88,-2.597 -0.25,-3.093 -3.22,0.242 -7.07,0.242 -12.9,0.371 -4.1,0 -8.55,-0.246 -11.91,-0.371 -0.74,0.496 -0.99,2.488 -0.25,3.093 l 4.1,0.379 c 2.98,0.246 5.7,1.613 7.44,6.074 2.23,5.704 5.71,13.782 10.92,27.668 l 12.65,33.496 c 1.74,4.461 2.48,6.817 2.11,8.809 2.98,0.867 5.09,3.098 6.45,4.707 0.75,0 1.62,-0.242 1.87,-1.113 1.6,-5.457 3.6,-11.16 5.45,-16.621 l 16.99,-49.871 c 3.6,-10.664 5.22,-12.532 10.55,-13.149 l 3.35,-0.379 c 0.87,-0.605 0.62,-2.597 0,-3.093 -5.09,0.242 -9.42,0.371 -15.01,0.371 -5.96,0 -10.66,-0.246 -14.27,-0.371 -0.98,0.496 -1.11,2.488 -0.24,3.093 l 3.59,0.379 c 2.61,0.246 4.35,0.988 4.35,2.231 0,1.355 -0.63,3.601 -1.61,6.582 l -5.47,16.875" /><path
         id="path102"
         style="fill:#ffffff;fill-opacity:1;fill-rule:nonzero;stroke:none"
         d="m 2401.19,395.742 c 0,-13.015 0.26,-14.883 7.44,-15.5 l 3.98,-0.379 c 0.74,-0.488 0.5,-2.722 -0.25,-3.093 -7.07,0.242 -11.29,0.371 -16.25,0.371 -4.96,0 -9.31,-0.129 -17.24,-0.371 -0.74,0.371 -1,2.476 0,3.093 l 4.46,0.379 c 7.07,0.617 7.69,2.485 7.69,15.5 v 55.457 c 0,3.852 0,3.969 -3.72,3.969 h -6.82 c -5.34,0 -12.16,-0.246 -15.27,-3.098 -2.97,-2.734 -4.22,-5.461 -5.58,-8.562 -0.99,-0.742 -2.73,-0.129 -3.23,0.867 2,5.586 3.85,13.523 4.72,18.484 0.37,0.246 1.99,0.371 2.36,0 0.74,-3.972 4.84,-3.843 10.54,-3.843 h 50.25 c 6.7,0 7.82,0.242 9.68,3.472 0.62,0.246 1.98,0.117 2.22,-0.371 -1.36,-5.086 -2.22,-15.137 -1.85,-18.855 -0.5,-0.996 -2.61,-0.996 -3.23,-0.254 -0.37,3.105 -1.25,7.695 -3.1,9.062 -2.85,2.11 -7.57,3.098 -14.4,3.098 h -8.8 c -3.72,0 -3.6,-0.117 -3.6,-4.223 v -55.203" /><path
         id="path104"
         style="fill:#ffffff;fill-opacity:1;fill-rule:nonzero;stroke:none"
         d="m 2517.77,414.602 c 0,20.464 -9.06,42.554 -32.75,42.554 -12.91,0 -29.65,-8.804 -29.65,-35.972 0,-18.364 8.93,-42.18 33.37,-42.18 14.88,0 29.03,11.164 29.03,35.598 m -74.8,2.605 c 0,24.813 18.6,43.789 44.16,43.789 28.65,0 43.05,-20.715 43.05,-42.551 0,-25.054 -19.11,-43.289 -43.05,-43.289 -27.54,0 -44.16,19.727 -44.16,42.051" /><path
         id="path106"
         style="fill:#ffffff;fill-opacity:1;fill-rule:nonzero;stroke:none"
         d="m 2564.86,422.539 c 0,-2.226 0,-3.594 0.37,-4.094 0.38,-0.371 2.23,-0.613 8.56,-0.613 4.47,0 9.18,0.488 12.77,3.223 3.36,2.605 6.21,6.941 6.21,15.383 0,9.8 -6.07,19.097 -19.84,19.097 -7.7,0 -8.07,-0.484 -8.07,-3.965 z m -10.17,17.742 c 0,11.789 -0.37,13.899 -5.46,14.516 l -3.98,0.496 c -0.86,0.613 -0.86,2.605 0.14,3.105 6.93,0.618 15.5,0.989 27.66,0.989 7.69,0 15.01,-0.617 20.72,-3.711 5.95,-3.11 10.29,-8.696 10.29,-17.375 0,-11.785 -9.3,-18.242 -15.51,-20.723 -0.62,-0.742 0,-1.98 0.63,-2.976 9.92,-15.997 16.49,-25.93 24.93,-33 2.11,-1.856 5.21,-3.223 8.57,-3.465 0.61,-0.254 0.73,-1.242 0.11,-1.742 -1.11,-0.372 -3.1,-0.625 -5.46,-0.625 -10.53,0 -16.86,3.109 -25.67,15.636 -3.24,4.59 -8.32,13.145 -12.17,18.731 -1.85,2.722 -3.84,3.972 -8.81,3.972 -5.57,0 -5.82,-0.125 -5.82,-2.73 v -15.637 c 0,-13.015 0.25,-14.512 7.44,-15.5 l 2.6,-0.379 c 0.75,-0.617 0.51,-2.722 -0.25,-3.093 -5.57,0.242 -9.79,0.371 -14.75,0.371 -5.21,0 -9.69,-0.129 -15.51,-0.371 -0.74,0.371 -0.99,2.222 -0.25,3.093 l 3.11,0.379 c 7.18,0.863 7.44,2.485 7.44,15.5 v 44.539" /><path
         id="path108"
         style="fill:#ffffff;fill-opacity:1;fill-rule:nonzero;stroke:none"
         d="m 2657.37,395.996 c 0,-13.269 0.76,-15.266 7.45,-15.754 l 4.71,-0.379 c 0.74,-0.73 0.5,-2.722 -0.24,-3.093 -7.7,0.242 -11.92,0.371 -16.88,0.371 -5.2,0 -9.68,-0.129 -16.25,-0.371 -0.74,0.371 -0.98,2.363 -0.25,3.093 l 3.86,0.379 c 7.18,0.742 7.44,2.485 7.44,15.754 v 6.328 c 0,6.817 -0.37,8.438 -3.98,15.379 l -14.64,28.535 c -4.21,8.188 -6.07,8.813 -9.8,9.426 l -3.47,0.625 c -0.75,0.867 -0.61,2.598 0.25,3.098 3.97,-0.246 8.43,-0.371 14.39,-0.371 5.7,0 10.18,0.125 13.27,0.371 1.13,-0.371 1.13,-2.356 0.37,-3.098 l -1.61,-0.254 c -4.33,-0.613 -5.21,-1.238 -5.21,-2.226 0,-1.243 3.23,-8.321 3.85,-9.563 4.58,-9.18 9.17,-18.973 14.02,-27.535 3.85,6.57 7.93,13.769 11.66,20.965 3.48,6.457 8.07,14.89 8.07,16.379 0,0.742 -2.24,1.609 -5.22,1.98 l -2.23,0.254 c -0.88,0.867 -0.75,2.598 0.24,3.098 4.47,-0.246 8.06,-0.371 11.91,-0.371 3.85,0 7.33,0.125 11.55,0.371 0.99,-0.617 1.11,-2.356 0.24,-3.098 l -3.47,-0.625 c -6.45,-1.113 -10.17,-8.934 -16.38,-19.601 l -7.82,-13.524 c -5.45,-9.426 -5.83,-10.535 -5.83,-20.098 v -6.445" /></g></g></svg>